<?xml version="1.0" encoding="UTF-8" standalone="no" ?>
<!DOCTYPE svg PUBLIC "-//W3C//DTD SVG 1.1//EN" "http://www.w3.org/Graphics/SVG/1.1/DTD/svg11.dtd">
<svg xmlns="http://www.w3.org/2000/svg" xmlns:xlink="http://www.w3.org/1999/xlink" version="1.1" width="640" height="480" viewBox="0 0 640 480" xml:space="preserve">
<desc>Created with Fabric.js 3.6.6</desc>
<defs>
</defs>
<g transform="matrix(1 0 0 1 366.87 306.9)"  >
<path style="stroke: rgb(0,0,0); stroke-width: 2; stroke-dasharray: none; stroke-linecap: butt; stroke-dashoffset: 0; stroke-linejoin: miter; stroke-miterlimit: 4; fill: rgb(0,0,0); fill-rule: nonzero; opacity: 1;"  transform=" translate(-365.87, -305.9)" d="M 142 203.5 L 512 201.5 Q 484 416.5 317 407.5 Q 150 398.5 142 203.5 L 512 201.5 L 504 249.5 Q 577 242.5 589 289.5 Q 592 353.5 460 343.5" stroke-linecap="round" />
</g>
<g transform="matrix(1 0 0 1 524.7 295.71)"  >
<path style="stroke: rgb(0,0,0); stroke-width: 2; stroke-dasharray: none; stroke-linecap: butt; stroke-dashoffset: 0; stroke-linejoin: miter; stroke-miterlimit: 4; fill: rgb(255,255,255); fill-rule: nonzero; opacity: 1;"  transform=" translate(-521.86, -300.17)" d="M 497.66666666666663 274.66666666666663 Q 484.33333333333326 310.99999999999994 476.66666666666663 322.66666666666663 Q 531.6666666666665 330.66666666666663 552.3333333333333 303.3333333333333 Q 577.3333333333333 270.99999999999994 497.66666666666663 274.66666666666663" stroke-linecap="round" />
</g>
<g transform="matrix(1 0 0 1 323.83 306.52)"  >
<path style="stroke: rgb(0,0,0); stroke-width: 2; stroke-dasharray: none; stroke-linecap: butt; stroke-dashoffset: 0; stroke-linejoin: miter; stroke-miterlimit: 4; fill: rgb(255,255,255); fill-rule: nonzero; opacity: 1;"  transform=" translate(-323.83, -302.52)" d="M 182.33333333333331 233.66666666666666 L 465.3333333333333 233 Q 447.66666666666663 372.33333333333337 329.66666666666663 372 Q 184.66666666666663 366.3333333333333 182.33333333333331 233.66666666666666" stroke-linecap="round" />
</g>
<g transform="matrix(1 0 0 1 327.14 420.15)"  >
<path style="stroke: rgb(0,0,0); stroke-width: 2; stroke-dasharray: none; stroke-linecap: butt; stroke-dashoffset: 0; stroke-linejoin: miter; stroke-miterlimit: 4; fill: rgb(0,0,0); fill-rule: nonzero; opacity: 1;"  transform=" translate(-326.15, -419.15)" d="M 89.57446808510637 409.3617021276595 L 561.9148936170212 407.65957446808505 Q 576.8085106382978 423.4042553191489 560.6382978723403 430.6382978723404 L 89.57446808510637 430.2127659574468 Q 75.95744680851064 417.02127659574455 89.57446808510637 409.3617021276595" stroke-linecap="round" />
</g>
<g transform="matrix(1 0 0 1 600.22 421.7)"  >
<path style="stroke: rgb(0,0,0); stroke-width: 7; stroke-dasharray: none; stroke-linecap: round; stroke-dashoffset: 0; stroke-linejoin: round; stroke-miterlimit: 10; fill: none; fill-rule: nonzero; opacity: 1;"  transform=" translate(-600.21, -421.7)" d="M 600.2057659574468 421.70212765957444 L 600.2197659574467 421.70212765957444" stroke-linecap="round" />
</g>
<g transform="matrix(1 0 0 1 601.92 422.55)"  >
<path style="stroke: rgb(0,0,0); stroke-width: 7; stroke-dasharray: none; stroke-linecap: round; stroke-dashoffset: 0; stroke-linejoin: round; stroke-miterlimit: 10; fill: none; fill-rule: nonzero; opacity: 1;"  transform=" translate(-601.91, -422.55)" d="M 601.9078936170213 422.55319148936167 L 601.9218936170212 422.55319148936167" stroke-linecap="round" />
</g>
<g transform="matrix(1 0 0 1 292.88 114.83)"  >
<path style="stroke: rgb(0,0,0); stroke-width: 2; stroke-dasharray: none; stroke-linecap: butt; stroke-dashoffset: 0; stroke-linejoin: miter; stroke-miterlimit: 4; fill: rgb(0,0,0); fill-rule: nonzero; opacity: 1;" vector-effect="non-scaling-stroke"  transform=" translate(-291.88, -113.83)" d="M 282.34042553191483 177.02127659574467 Q 205.3191489361701 140.85106382978722 282.34042553191483 99.99999999999999 Q 358.9361702127659 52.765957446808514 247.8723404255319 42.12765957446808 Q 223.61702127659572 22.97872340425532 252.12765957446805 16.595744680851062 Q 372.9787234042553 31.914893617021278 341.4893617021276 64.25531914893617 Q 246.1702127659574 143.82978723404256 293.8297872340425 144.68085106382978 Q 346.17021276595733 226.80851063829786 282.34042553191483 177.02127659574467" stroke-linecap="round" />
</g>
<g transform="matrix(0.49 0 0 0.49 344.95 156.22)"  >
<path style="stroke: rgb(0,0,0); stroke-width: 2; stroke-dasharray: none; stroke-linecap: butt; stroke-dashoffset: 0; stroke-linejoin: miter; stroke-miterlimit: 4; fill: rgb(0,0,0); fill-rule: nonzero; opacity: 1;"  transform=" translate(-291.88, -113.83)" d="M 282.34042553191483 177.02127659574467 Q 205.3191489361701 140.85106382978722 282.34042553191483 99.99999999999999 Q 358.9361702127659 52.765957446808514 247.8723404255319 42.12765957446808 Q 223.61702127659572 22.97872340425532 252.12765957446805 16.595744680851062 Q 372.9787234042553 31.914893617021278 341.4893617021276 64.25531914893617 Q 246.1702127659574 143.82978723404256 293.8297872340425 144.68085106382978 Q 346.17021276595733 226.80851063829786 282.34042553191483 177.02127659574467" stroke-linecap="round" />
</g>
<g transform="matrix(0.14 0 0 0.14 602.37 421.52)"  >
<path style="stroke: rgb(0,0,0); stroke-width: 8; stroke-dasharray: none; stroke-linecap: butt; stroke-dashoffset: 0; stroke-linejoin: miter; stroke-miterlimit: 10; fill: none; fill-rule: evenodd; opacity: 1;" vector-effect="non-scaling-stroke"  transform=" translate(-59.83, -59.83)" d="m 0.005249344 59.82677 l 26.922047 -19.30849 l 0 9.424511 l 23.020744 0 l 0 -23.020744 l -9.424511 0 l 19.30849 -26.922047 l 19.30849 26.922047 l -9.424507 0 l 0 23.020744 l 23.020744 0 l 0 -9.424511 l 26.922043 19.30849 l -26.922043 19.30849 l 0 -9.424507 l -23.020744 0 l 0 23.020744 l 9.424507 0 l -19.30849 26.922043 l -19.30849 -26.922043 l 9.424511 0 l 0 -23.020744 l -23.020744 0 l 0 9.424507 z" stroke-linecap="round" />
</g>
<g transform="matrix(0.1 0 0 0.1 40.3 416.3)"  >
<path style="stroke: rgb(0,0,0); stroke-width: 8; stroke-dasharray: none; stroke-linecap: butt; stroke-dashoffset: 0; stroke-linejoin: miter; stroke-miterlimit: 10; fill: none; fill-rule: evenodd; opacity: 1;" vector-effect="non-scaling-stroke"  transform=" translate(-51.83, -51.83)" d="m 0 51.82677 l 42.665005 -9.161766 l 9.161766 -42.665005 l 9.161766 42.665005 l 42.665005 9.161766 l -42.665005 9.161766 l -9.161766 42.665005 l -9.161766 -42.665005 z" stroke-linecap="round" />
</g>
<g transform="matrix(0.41 0 0 0.41 536.15 51.97)"  >
<path style="stroke: rgb(0,0,0); stroke-width: 8; stroke-dasharray: none; stroke-linecap: butt; stroke-dashoffset: 0; stroke-linejoin: miter; stroke-miterlimit: 4; fill: none; fill-rule: nonzero; opacity: 1;" vector-effect="non-scaling-stroke"  transform=" translate(-45, -41)" d="M 55.2785222 56.3408313 C 51.3476874 61.3645942 45.2375557 64.5921788 38.3756345 64.5921788 C 31.4568191 64.5921788 25.3023114 61.3108505 21.3754218 56.215501 C 10.6371566 55.0276798 2.28426396 45.8997866 2.28426396 34.8156425 C 2.28426396 27.0769445 6.35589452 20.2918241 12.4682429 16.4967409 C 14.7287467 7.0339786 23.2203008 0 33.3502538 0 C 38.667844 0 43.5339584 1.93827732 47.284264 5.14868458 C 51.0345695 1.93827732 55.9006839 0 61.2182741 0 C 73.0769771 0 82.6903553 9.6396345 82.6903553 21.5307263 C 82.6903553 22.0787821 82.6699341 22.6220553 82.629813 23.1598225 C 87.1459866 27.1069477 90 32.9175923 90 39.396648 C 90 51.2877398 80.3866218 60.9273743 68.5279188 60.9273743 C 63.5283115 60.9273743 58.9277995 59.2139774 55.2785222 56.3408313 L 55.2785222 56.3408313 Z M 4.79695431 82 C 7.44623903 82 9.59390863 80.6668591 9.59390863 79.0223464 C 9.59390863 77.3778337 7.44623903 76.0446927 4.79695431 76.0446927 C 2.1476696 76.0446927 0 77.3778337 0 79.0223464 C 0 80.6668591 2.1476696 82 4.79695431 82 Z M 13.7055838 71.9217877 C 18.4995275 71.9217877 22.3857868 69.4606044 22.3857868 66.424581 C 22.3857868 63.3885576 18.4995275 60.9273743 13.7055838 60.9273743 C 8.91163999 60.9273743 5.02538071 63.3885576 5.02538071 66.424581 C 5.02538071 69.4606044 8.91163999 71.9217877 13.7055838 71.9217877 Z" stroke-linecap="round" />
</g>
</svg>