<?xml version="1.0" standalone="no"?>
<!DOCTYPE svg PUBLIC "-//W3C//DTD SVG 20010904//EN"
 "http://www.w3.org/TR/2001/REC-SVG-20010904/DTD/svg10.dtd">
<svg version="1.0" xmlns="http://www.w3.org/2000/svg"
 width="1600.000000pt" height="1200.000000pt" viewBox="0 0 1600.000000 1200.000000"
 preserveAspectRatio="xMidYMid meet">

<g transform="translate(0.000000,1200.000000) scale(0.100000,-0.100000)"
fill="#000000" stroke="none">
<path d="M7725 11604 c-455 -34 -684 -66 -1018 -145 -1240 -291 -2351 -1007
-3142 -2024 -585 -752 -978 -1671 -1114 -2610 -45 -309 -55 -455 -55 -825 0
-369 10 -520 55 -825 235 -1614 1190 -3070 2584 -3938 491 -305 1029 -535
1576 -673 131 -32 145 -34 318 -34 l181 0 0 1920 0 1920 -710 0 -710 0 0 780
0 780 710 0 710 0 0 673 c0 809 8 929 81 1221 205 820 836 1358 1739 1481 248
34 640 30 1040 -11 151 -15 521 -60 578 -70 l32 -6 0 -709 0 -709 -405 0
c-223 0 -449 -5 -503 -10 -309 -33 -502 -146 -600 -350 -77 -161 -75 -146 -79
-867 l-4 -643 753 -2 754 -3 -57 -345 c-32 -190 -87 -527 -123 -750 -37 -223
-69 -417 -72 -433 l-6 -27 -624 0 -624 0 0 -1920 0 -1920 131 0 c116 0 147 4
268 34 1195 301 2276 1011 3046 2001 586 753 977 1671 1114 2610 45 305 55
456 55 825 0 370 -10 516 -55 825 -235 1614 -1190 3070 -2584 3938 -741 461
-1548 733 -2435 822 -145 15 -692 28 -805 19z"/>
</g>
</svg>
