<?xml version="1.0" standalone="no"?>
<!DOCTYPE svg PUBLIC "-//W3C//DTD SVG 20010904//EN"
 "http://www.w3.org/TR/2001/REC-SVG-20010904/DTD/svg10.dtd">
<svg version="1.0" xmlns="http://www.w3.org/2000/svg"
 width="225.000000pt" height="225.000000pt" viewBox="0 0 225.000000 225.000000"
 preserveAspectRatio="xMidYMid meet">

<g transform="translate(0.000000,225.000000) scale(0.100000,-0.100000)"
fill="#F05033" stroke="none">
<path d="M1065 2231 c-22 -10 -86 -66 -142 -123 l-103 -103 129 -129 c115
-115 132 -128 155 -122 99 25 220 -93 199 -196 -5 -28 4 -39 118 -154 94 -95
128 -122 142 -118 61 19 158 -30 193 -97 21 -42 18 -117 -9 -164 -68 -120
-250 -109 -308 19 -20 45 -24 88 -10 115 8 14 -11 38 -105 132 l-114 114 0
-302 0 -301 24 -15 c70 -46 91 -158 43 -234 -92 -145 -320 -80 -322 92 0 51
33 114 73 140 l31 20 1 304 0 304 -44 41 c-52 48 -74 111 -58 162 9 31 7 34
-117 158 l-126 126 -347 -347 c-365 -367 -378 -383 -363 -456 10 -47 1033
-1073 1085 -1087 82 -23 72 -31 627 523 554 555 546 545 523 627 -8 27 -124
149 -527 552 -285 285 -531 522 -546 528 -39 14 -56 13 -102 -9z"/>
</g>
</svg>
