<?xml version="1.0" standalone="no"?>
<!DOCTYPE svg PUBLIC "-//W3C//DTD SVG 20010904//EN"
 "http://www.w3.org/TR/2001/REC-SVG-20010904/DTD/svg10.dtd">
<svg version="1.0" xmlns="http://www.w3.org/2000/svg"
 width="50.000000pt" height="50.000000pt" viewBox="0 0 50.000000 50.000000"
 preserveAspectRatio="xMidYMid meet">

<g transform="translate(0.000000,50.000000) scale(0.100000,-0.100000)"
fill="#000000" stroke="none">
<path d="M81 472 c-69 -34 -76 -55 -76 -222 0 -167 7 -188 76 -222 50 -26 288
-26 338 0 69 34 76 55 76 222 0 167 -7 188 -76 222 -50 26 -288 26 -338 0z
m340 -61 l29 -29 0 -132 0 -132 -29 -29 -29 -29 -142 0 -142 0 -29 29 -29 29
0 132 0 132 29 29 29 29 142 0 142 0 29 -29z"/>
<path d="M362 401 c-23 -14 -10 -46 18 -46 16 0 26 6 28 19 3 16 -12 36 -28
36 -3 0 -11 -4 -18 -9z"/>
<path d="M162 336 c-34 -31 -37 -39 -37 -86 0 -47 3 -55 37 -86 33 -29 45 -34
88 -34 43 0 55 5 88 34 34 31 37 39 37 86 0 47 -3 55 -37 86 -33 29 -45 34
-88 34 -43 0 -55 -5 -88 -34z m121 -18 c12 -6 27 -18 34 -27 44 -57 -34 -145
-99 -110 -63 33 -65 102 -3 137 26 15 41 15 68 0z"/>
</g>
</svg>
