<?xml version="1.0" standalone="no"?>
<!DOCTYPE svg PUBLIC "-//W3C//DTD SVG 20010904//EN"
 "http://www.w3.org/TR/2001/REC-SVG-20010904/DTD/svg10.dtd">
<svg version="1.0" xmlns="http://www.w3.org/2000/svg"
 width="900.000000pt" height="768.000000pt" viewBox="0 0 900.000000 768.000000"
 preserveAspectRatio="xMidYMid meet">

<g transform="translate(0.000000,768.000000) scale(0.100000,-0.100000)"
fill="#25D366" stroke="none">
<path d="M4255 6708 c-550 -48 -1101 -271 -1543 -626 -129 -102 -328 -302
-432 -432 -384 -481 -597 -1037 -629 -1644 -27 -515 77 -1008 309 -1460 l66
-130 -139 -505 c-76 -278 -165 -605 -198 -726 -33 -121 -62 -227 -64 -236 -4
-12 126 19 557 133 310 81 651 171 759 199 l196 51 114 -56 c601 -291 1278
-367 1919 -215 1323 313 2253 1525 2207 2879 -18 545 -178 1049 -472 1490
-115 173 -189 264 -345 424 -604 621 -1440 931 -2305 854z m530 -489 c522 -57
1022 -298 1401 -674 140 -139 216 -233 326 -400 170 -258 285 -548 343 -860
95 -516 16 -1049 -223 -1519 -183 -359 -489 -697 -832 -918 -316 -204 -676
-329 -1059 -369 -141 -15 -447 -6 -586 16 -204 32 -411 92 -590 170 -104 45
-147 67 -277 142 l-77 44 -273 -71 c-150 -39 -316 -83 -368 -97 -176 -46 -252
-64 -256 -60 -2 2 50 198 116 437 l119 433 -56 91 c-172 278 -288 593 -339
916 -26 162 -26 538 -1 700 79 510 307 962 670 1329 515 521 1226 771 1962
690z"/>
<path d="M3424 5163 c-63 -23 -91 -45 -171 -136 -72 -82 -130 -187 -165 -297
-20 -65 -23 -95 -23 -230 0 -175 10 -228 77 -390 50 -123 108 -224 226 -390
349 -491 758 -850 1188 -1044 149 -68 405 -159 504 -180 155 -32 347 -25 465
18 153 55 335 194 378 288 31 67 58 191 60 274 2 69 -1 85 -18 104 -11 12
-103 62 -205 112 -338 165 -422 201 -476 206 -58 5 -36 25 -199 -180 -128
-162 -156 -188 -196 -188 -19 0 -72 17 -119 37 -366 160 -628 377 -854 705
-76 110 -110 180 -101 208 3 10 42 61 86 112 121 140 167 228 150 284 -18 59
-241 588 -266 630 -14 24 -35 48 -46 54 -11 6 -70 13 -132 16 -92 4 -121 1
-163 -13z"/>
</g>
</svg>
